HIERARCHY
ROOT hip
{
  OFFSET 0 0 0
  CHANNELS 6 Xposition Yposition Zposition Zrotation Yrotation Xrotation
  JOINT abdomen
  {
    OFFSET 0 20.6881 -0.73152
    CHANNELS 3 Zrotation Xrotation Yrotation
    JOINT chest
    {
      OFFSET 0 11.7043 -0.48768
      CHANNELS 3 Zrotation Xrotation Yrotation
      JOINT neck
      {
        OFFSET 0 22.1894 -2.19456
        CHANNELS 3 Zrotation Xrotation Yrotation
        JOINT head
        {
          OFFSET -0.24384 7.07133 1.2192
          CHANNELS 3 Zrotation Xrotation Yrotation
          JOINT leftEye
          {
            OFFSET 4.14528 8.04674 8.04672
            CHANNELS 3 Zrotation Xrotation Yrotation
            End Site
            {
              OFFSET 1 0 0
            }
          }
          JOINT rightEye
          {
            OFFSET -3.6576 8.04674 8.04672
            CHANNELS 3 Zrotation Xrotation Yrotation
            End Site
            {
              OFFSET 1 0 0
            }
          }
        }
      }
      JOINT rCollar
      {
        OFFSET -2.68224 19.2634 -4.8768
        CHANNELS 3 Zrotation Xrotation Yrotation
        JOINT rShldr
        {
          OFFSET -8.77824 -1.95073 1.46304
          CHANNELS 3 Zrotation Xrotation Yrotation
          JOINT rForeArm
          {
            OFFSET -28.1742 -1.7115 0.48768
            CHANNELS 3 Zrotation Xrotation Yrotation
            JOINT rHand
            {
              OFFSET -22.5879 0.773209 7.07136
              CHANNELS 3 Zrotation Xrotation Yrotation
              JOINT rThumb1
              {
                OFFSET -1.2192 -0.487915 3.41376
                CHANNELS 3 Zrotation Xrotation Yrotation
                JOINT rThumb2
                {
                  OFFSET -3.37035 -0.52449 3.41376
                  CHANNELS 3 Zrotation Xrotation Yrotation
                  End Site
                  {
                    OFFSET -1.78271 -1.18214 1.43049
                  }
                }
              }
              JOINT rIndex1
              {
                OFFSET -7.75947 0.938293 5.60832
                CHANNELS 3 Zrotation Xrotation Yrotation
                JOINT rIndex2
                {
                  OFFSET -2.54057 -0.884171 1.56538
                  CHANNELS 3 Zrotation Xrotation Yrotation
                  End Site
                  {
                    OFFSET -1.62519 -0.234802 1.16502
                  }
                }
              }
              JOINT rMid1
              {
                OFFSET -8.24714 1.18213 3.41376
                CHANNELS 3 Zrotation Xrotation Yrotation
                JOINT rMid2
                {
                  OFFSET -3.10165 -0.590103 1.0647
                  CHANNELS 3 Zrotation Xrotation Yrotation
                  End Site
                  {
                    OFFSET -2.48547 -0.328903 0.83742
                  }
                }
              }
              JOINT rRing1
              {
                OFFSET -8.82822 0.546677 1.51678
                CHANNELS 3 Zrotation Xrotation Yrotation
                JOINT rRing2
                {
                  OFFSET -2.60934 -0.819778 -0.0198488
                  CHANNELS 3 Zrotation Xrotation Yrotation
                  End Site
                  {
                    OFFSET -2.33842 -0.294052 0.168128
                  }
                }
              }
              JOINT rPinky1
              {
                OFFSET -8.27202 -0.0477905 -0.4584
                CHANNELS 3 Zrotation Xrotation Yrotation
                JOINT rPinky2
                {
                  OFFSET -1.82734 -0.647385 -0.700984
                  CHANNELS 3 Zrotation Xrotation Yrotation
                  End Site
                  {
                    OFFSET -1.69225 -0.51767 -0.607171
                  }
                }
              }
            }
          }
        }
      }
      JOINT lCollar
      {
        OFFSET 2.68224 19.2634 -4.8768
        CHANNELS 3 Zrotation Xrotation Yrotation
        JOINT lShldr
        {
          OFFSET 8.77824 -1.95073 1.46304
          CHANNELS 3 Zrotation Xrotation Yrotation
          JOINT lForeArm
          {
            OFFSET 28.1742 -1.7115 0.48768
            CHANNELS 3 Zrotation Xrotation Yrotation
            JOINT lHand
            {
              OFFSET 22.5879 0.773209 7.07136
              CHANNELS 3 Zrotation Xrotation Yrotation
              JOINT lThumb1
              {
                OFFSET 1.2192 -0.487915 3.41376
                CHANNELS 3 Zrotation Xrotation Yrotation
                JOINT lThumb2
                {
                  OFFSET 3.37035 -0.52449 3.41376
                  CHANNELS 3 Zrotation Xrotation Yrotation
                  End Site
                  {
                    OFFSET 1.78271 -1.18214 1.43049
                  }
                }
              }
              JOINT lIndex1
              {
                OFFSET 7.75947 0.938293 5.60832
                CHANNELS 3 Zrotation Xrotation Yrotation
                JOINT lIndex2
                {
                  OFFSET 2.54057 -0.884171 1.56538
                  CHANNELS 3 Zrotation Xrotation Yrotation
                  End Site
                  {
                    OFFSET 1.62519 -0.234802 1.16502
                  }
                }
              }
              JOINT lMid1
              {
                OFFSET 8.24714 1.18213 3.41376
                CHANNELS 3 Zrotation Xrotation Yrotation
                JOINT lMid2
                {
                  OFFSET 3.10165 -0.590103 1.0647
                  CHANNELS 3 Zrotation Xrotation Yrotation
                  End Site
                  {
                    OFFSET 2.48547 -0.328903 0.83742
                  }
                }
              }
              JOINT lRing1
              {
                OFFSET 8.82822 0.546677 1.51678
                CHANNELS 3 Zrotation Xrotation Yrotation
                JOINT lRing2
                {
                  OFFSET 2.60934 -0.819778 -0.0198488
                  CHANNELS 3 Zrotation Xrotation Yrotation
                  End Site
                  {
                    OFFSET 2.33842 -0.294052 0.168128
                  }
                }
              }
              JOINT lPinky1
              {
                OFFSET 8.27202 -0.0477905 -0.4584
                CHANNELS 3 Zrotation Xrotation Yrotation
                JOINT lPinky2
                {
                  OFFSET 1.82734 -0.647385 -0.700984
                  CHANNELS 3 Zrotation Xrotation Yrotation
                  End Site
                  {
                    OFFSET 1.69225 -0.51767 -0.607171
                  }
                }
              }
            }
          }
        }
      }
    }
  }
  JOINT rButtock
  {
    OFFSET -8.77824 4.35084 1.2192
    CHANNELS 3 Zrotation Xrotation Yrotation
    JOINT rThigh
    {
      OFFSET 0 -1.70687 -2.19456
      CHANNELS 3 Zrotation Xrotation Yrotation
      JOINT rShin
      {
        OFFSET 0 -36.8199 0.73152
        CHANNELS 3 Zrotation Xrotation Yrotation
        JOINT rFoot
        {
          OFFSET 0.73152 -45.1104 -5.12064
          CHANNELS 3 Zrotation Xrotation Yrotation
          End Site
          {
            OFFSET -1.1221 -3.69964 12.103
          }
        }
      }
    }
  }
  JOINT lButtock
  {
    OFFSET 8.77824 4.35084 1.2192
    CHANNELS 3 Zrotation Xrotation Yrotation
    JOINT lThigh
    {
      OFFSET 0 -1.70687 -2.19456
      CHANNELS 3 Zrotation Xrotation Yrotation
      JOINT lShin
      {
        OFFSET 0 -36.8199 0.73152
        CHANNELS 3 Zrotation Xrotation Yrotation
        JOINT lFoot
        {
          OFFSET -0.73152 -45.1104 -5.12064
          CHANNELS 3 Zrotation Xrotation Yrotation
          End Site
          {
            OFFSET 1.1221 -3.69964 12.103
          }
        }
      }
    }
  }
}
MOTION
Frames:	4
Frame Time:	0.00833333
-3.73366 84.2564 37.4413 0.0 0.0 0.0 -1.24151 -0.00398119 -0.0340789 -0.342494 -0.00249264 -0.0593272 -2.10817e-14 -7.95139e-16 2.85753e-16 -6.34216e-14 3.18055e-15 8.18434e-16 -0.0 0.0 0.0 -0.0 0.0 0.0 -1.04877e-14 -2.48481e-17 2.98177e-16 -2.19546e-13 -3.66509e-16 3.18055e-15 -3.8107e-12 1.12751e-12 8.90555e-14 -4.36668e-11 -1.21664e-12 4.86625e-13 -1.02995e-10 -1.94051e-13 1.26904e-12 -1.77881e-10 -3.40319e-13 2.19538e-12 -1.02988e-10 -1.93616e-13 1.26904e-12 7.73091 5.47488 0.417314 -1.02994e-10 -1.93914e-13 1.2754e-12 2.90554 0.965183 0.102902 -1.02989e-10 -1.93417e-13 1.26904e-12 10.2786 0.731801 0.0259123 -1.02999e-10 -1.92821e-13 1.27858e-12 2.22167 -0.733487 -0.20892 -1.05842e-14 -2.4654e-17 0.0 -2.23478e-13 -3.60297e-16 1.59028e-15 -3.8186e-12 -1.15454e-12 9.22361e-14 -4.36581e-11 1.05617e-12 4.99347e-13 -1.02989e-10 -2.15892e-13 1.26586e-12 -1.77849e-10 -3.78486e-13 2.19617e-12 -1.02995e-10 -2.15085e-13 1.27858e-12 -7.73091 5.47488 -0.417314 -1.02989e-10 -2.1598e-13 1.26586e-12 -2.90554 0.965183 -0.102902 -1.02997e-10 -2.15582e-13 1.27063e-12 -10.2786 0.731801 -0.0259123 -1.02984e-10 -2.127e-13 1.26586e-12 -2.22167 -0.733487 0.20892 -2.03217e-16 0.0 -3.88251e-19 -0.453826 -1.92099 -0.00952735 -0.00915571 -2.07857 -0.0755531 -0.487468 3.99699 0.136655 2.03217e-16 0.0 3.88251e-19 -1.43727 -5.97115 0.129662 -0.00126429 5.25795 -0.0454143 0.507811 0.710744 -0.0722735
-4.62271 84.1497 36.6163 -2.7286 -3.2844 0.309 -0.252543 -0.122801 0.467613 -0.496337 -0.384909 0.0940616 -0.0815239 1.0786 -0.403127 1.32565 -0.0386215 -0.783008 -0.0 0.0 0.0 -0.0 0.0 0.0 -1.90001e-14 -5.72971e-15 2.01891e-14 23.0616 7.67869 -3.74942 -6.43901 -3.5633 9.26885 0.0812016 6.32818 0.869896 -1.58457e-10 -5.46789e-11 1.46189e-10 -2.71087e-10 -9.85352e-11 2.54557e-10 -1.58451e-10 -5.46782e-11 1.46188e-10 7.73091 5.47488 0.417314 -1.58454e-10 -5.46804e-11 1.46194e-10 2.90554 0.965183 0.102902 -1.58451e-10 -5.46766e-11 1.46189e-10 10.2786 0.731801 0.0259123 -1.5846e-10 -5.46745e-11 1.46196e-10 2.22167 -0.733487 -0.20892 -1.90537e-14 -5.73006e-15 1.99623e-14 2.1875 1.29107e-09 -7.13203e-11 -6.65009e-12 -8.24094e-12 9.30454e-12 -8.60186e-11 -3.04804e-11 9.7237e-11 -2.00946e-10 -8.44386e-11 2.31288e-10 -3.46965e-10 -1.45978e-10 3.99497e-10 -2.00951e-10 -8.44374e-11 2.31299e-10 -7.73091 5.47488 -0.417314 -2.00945e-10 -8.44388e-11 2.31289e-10 -2.90554 0.965183 -0.102902 -2.00953e-10 -8.44382e-11 2.31293e-10 -10.2786 0.731801 -0.0259123 -2.00941e-10 -8.4436e-11 2.31289e-10 -2.22167 -0.733487 0.20892 -2.03217e-16 0.0 -3.88251e-19 -1.27309 -0.193547 1.28745 -0.00408026 -1.51885 -0.0402781 -0.624471 -1.23499 -3.43362 2.03217e-16 0.0 3.88251e-19 1.18853 -6.55244 -2.14464 -0.0136816 9.8484 -0.174863 0.952014 -4.74127 4.02316
-4.63857 84.1415 36.6036 -2.8089 -3.2905 0.3744 0.80888 -0.240845 0.995055 -0.658934 -0.784181 0.255437 -0.150763 2.21451 -0.82905 2.7229 -0.0832598 -1.60925 -0.0 0.0 0.0 -0.0 0.0 0.0 -2.84202e-14 -1.15646e-14 4.17945e-14 48.5663 15.6871 -7.95111 -12.0196 -7.03022 19.1965 -0.0468956 13.0149 1.82575 -2.17163e-10 -1.17191e-10 3.05097e-10 -3.69653e-10 -2.10921e-10 5.31204e-10 -2.17157e-10 -1.1719e-10 3.05095e-10 7.73091 5.47488 0.417314 -2.17158e-10 -1.17194e-10 3.05101e-10 2.90554 0.965183 0.102902 -2.17158e-10 -1.17187e-10 3.05097e-10 10.2786 0.731801 0.0259123 -2.17164e-10 -1.17183e-10 3.05102e-10 2.22167 -0.733487 -0.20892 -2.84278e-14 -1.15655e-14 4.16454e-14 4.5 2.65591e-09 -1.46718e-10 -9.98e-12 -1.57449e-11 1.91428e-11 -1.34544e-10 -6.33205e-11 2.00437e-10 -3.13393e-10 -1.72434e-10 4.76673e-10 -5.41119e-10 -2.98107e-10 8.23326e-10 -3.13399e-10 -1.72433e-10 4.76684e-10 -7.73091 5.47488 -0.417314 -3.13393e-10 -1.72435e-10 4.76675e-10 -2.90554 0.965183 -0.102902 -3.13401e-10 -1.72434e-10 4.7668e-10 -10.2786 0.731801 -0.0259123 -3.13389e-10 -1.72432e-10 4.76676e-10 -2.22167 -0.733487 0.20892 -2.03217e-16 0.0 -3.88251e-19 -2.21627 1.63474 2.65911 0.000536624 -0.926484 -0.00301027 -1.48033 -6.71546 -7.25766 2.03217e-16 0.0 3.88251e-19 3.92111 -7.15272 -4.55497 -0.003481 14.7077 -0.317123 2.2785 -10.4181 8.46296
-4.63935 84.1403 36.6029 -2.807 -3.305 0.3797 1.73164 -0.360334 1.47102 -0.797881 -1.14971 0.400913 -0.19898 3.23515 -1.2111 3.97379 -0.115778 -2.34903 -0.0 0.0 0.0 -0.0 0.0 0.0 -3.60249e-14 -1.71394e-14 5.99708e-14 72.3903 22.6249 -12.0901 -15.9695 -9.57253 28.1789 -0.360788 18.9665 2.7428 -2.69381e-10 -1.63649e-10 4.36028e-10 -4.57499e-10 -2.94925e-10 7.59279e-10 -2.69375e-10 -1.63647e-10 4.36025e-10 7.73091 5.47488 0.417314 -2.69374e-10 -1.63653e-10 4.36031e-10 2.90554 0.965183 0.102902 -2.69376e-10 -1.63643e-10 4.36028e-10 10.2786 0.731801 0.0259123 -2.69381e-10 -1.63638e-10 4.36032e-10 2.22167 -0.733487 -0.20892 -3.59926e-14 -1.71409e-14 5.9887e-14 6.5625 3.8732e-09 -2.13964e-10 -1.23131e-11 -2.24138e-11 2.77291e-11 -1.7074e-10 -9.35534e-11 2.90712e-10 -3.96859e-10 -2.52884e-10 6.91331e-10 -6.85199e-10 -4.37177e-10 1.1941e-09 -3.96865e-10 -2.52882e-10 6.91341e-10 -7.73091 5.47488 -0.417314 -3.96858e-10 -2.52884e-10 6.91334e-10 -2.90554 0.965183 -0.102902 -3.96867e-10 -2.52883e-10 6.91338e-10 -10.2786 0.731801 -0.0259123 -3.96856e-10 -2.52883e-10 6.91335e-10 -2.22167 -0.733487 0.20892 -2.03217e-16 0.0 -3.88251e-19 -3.1463 3.2537 3.88764 0.00400349 -0.399419 0.0302156 -2.87205 -11.5042 -10.7904 2.03217e-16 0.0 3.88251e-19 6.30126 -7.67634 -6.71021 0.0271492 19.0289 -0.451061 4.23042 -15.319 12.6284
